<?xml version="1.0" encoding="utf-8"?>
<!-- Generator: Adobe Illustrator 16.0.3, SVG Export Plug-In . SVG Version: 6.00 Build 0)  -->
<svg version="1.2" baseProfile="tiny" id="Layer_1" xmlns="http://www.w3.org/2000/svg" xmlns:xlink="http://www.w3.org/1999/xlink"
	 x="0px" y="0px" width="287px" height="207px" viewBox="0 0 287 207" xml:space="preserve">
<g>
	<g>
		<path fill-rule="evenodd" fill="#FFFFFF" d="M267.251,31.132C261.025,17.848,252.622,0,232.508,3.263
			C166.254,29.647,94.934,47.94,27.795,72.935c-3.024-2.723-4.265-9.764-9.622-5.108c-12.614,9.633-19.313,62.118,0,69.207
			c4.584,1.798,7.769-1.983,9.087-4.645c11.402,4.024,22.807,8.051,34.209,12.076c3.506,3.209,5.914,14.72,9.086,19.043
			c10.705,14.595,56.717,35.354,67.883,7.432c22.624,7.741,45.255,15.484,67.879,23.225c9.386,3.388,20.579,10.318,33.675,7.432
			c12.506-2.757,20.898-13.255,25.656-22.76C284.404,141.369,285.428,69.919,267.251,31.132z M127.212,167.225
			c-13.983,19.037-47.728-4.237-50.778-17.65c16.924,5.728,33.854,11.457,50.778,17.185
			C127.212,166.914,127.212,167.069,127.212,167.225z M235.716,181.158c-0.535,0.155-1.068,0.31-1.603,0.465
			c-30.122-25.016-29.839-132.831,0-157.923c11.346,5.697,14.182,21.3,17.639,33.907C262.763,97.774,257.899,155.61,235.716,181.158
			z"/>
	</g>
	<g>
		<path fill="none" stroke="#CB2026" stroke-miterlimit="10" d="M267.251,31.132C261.025,17.848,252.622,0,232.508,3.263
			C166.254,29.647,94.934,47.94,27.795,72.935c-3.024-2.723-4.265-9.764-9.622-5.108c-12.614,9.633-19.313,62.118,0,69.207
			c4.584,1.798,7.769-1.983,9.087-4.645c11.402,4.024,22.807,8.051,34.209,12.076c3.506,3.209,5.914,14.72,9.086,19.043
			c10.705,14.595,56.717,35.354,67.883,7.432c22.624,7.741,45.255,15.484,67.879,23.225c9.386,3.388,20.579,10.318,33.675,7.432
			c12.506-2.757,20.898-13.255,25.656-22.76C284.404,141.369,285.428,69.919,267.251,31.132z M127.212,167.225
			c-13.983,19.037-47.728-4.237-50.778-17.65c16.924,5.728,33.854,11.457,50.778,17.185
			C127.212,166.914,127.212,167.069,127.212,167.225z M235.716,181.158c-0.535,0.155-1.068,0.31-1.603,0.465
			c-30.122-25.016-29.839-132.831,0-157.923c11.346,5.697,14.182,21.3,17.639,33.907C262.763,97.774,257.899,155.61,235.716,181.158
			z"/>
	</g>
</g>
<g>
	<g>
		<path d="M35.81,122.166c0-0.245,0-0.366,0-0.607c0-0.423,0.243-0.557,0.728-0.412c1.176,0.35,1.766,0.523,2.954,0.872
			c0.489,0.144,0.735,0.429,0.734,0.862c0,0.099,0,0.145,0,0.244c-0.002,0.789,0.17,1.401,0.519,1.81s0.991,0.759,1.93,1.046
			c0.662,0.202,0.994,0.304,1.659,0.506c0.919,0.28,1.564,0.309,1.935,0.089c0.37-0.219,0.561-0.776,0.569-1.656
			c0.001-0.154,0.002-0.233,0.004-0.387c0.006-0.62-0.271-1.164-0.827-1.644c-0.556-0.479-1.249-0.861-2.077-1.151
			c-0.828-0.291-1.72-0.651-2.669-1.082s-1.831-0.891-2.645-1.372s-1.49-1.166-2.032-2.021c-0.542-0.854-0.814-1.807-0.813-2.84
			c0-0.35,0.001-0.524,0.001-0.866c0-1.271,0.506-2.094,1.531-2.595c1.024-0.5,2.453-0.635,4.304-0.371
			c1.424,0.202,2.14,0.303,3.584,0.501c1.901,0.261,3.397,0.844,4.46,1.827c1.063,0.983,1.583,2.271,1.558,3.841
			c-0.004,0.229-0.005,0.345-0.009,0.575c-0.007,0.425-0.267,0.584-0.777,0.476c-1.24-0.264-1.857-0.396-3.084-0.662
			c-0.506-0.109-0.755-0.368-0.751-0.77c0-0.068,0.001-0.101,0.001-0.169c0.007-0.743-0.167-1.276-0.524-1.604
			c-0.358-0.328-1.02-0.577-1.975-0.754c-0.559-0.104-0.838-0.156-1.394-0.26c-0.975-0.183-1.63-0.17-1.973,0.029
			s-0.514,0.676-0.516,1.467c0,0.2-0.002,0.302-0.002,0.504c-0.003,0.835,0.953,1.566,2.894,2.164
			c2.01,0.619,3.836,1.375,5.401,2.315c0.837,0.503,1.539,1.237,2.095,2.196c0.556,0.958,0.823,2.093,0.803,3.407
			c-0.007,0.446-0.01,0.67-0.017,1.122c-0.026,1.729-0.576,2.953-1.637,3.622c-1.061,0.668-2.512,0.726-4.35,0.15
			c-1.54-0.482-2.306-0.722-3.831-1.203c-1.819-0.573-3.229-1.532-4.244-2.824C36.314,125.249,35.81,123.76,35.81,122.166z"/>
		<path d="M70.268,138.181c-1.26-0.378-1.889-0.566-3.143-0.944c-0.516-0.155-0.765-0.482-0.745-0.984
			c0.34-8.614,0.511-12.982,0.852-21.656c0.02-0.505,0.3-0.728,0.84-0.666c3.765,0.429,5.667,0.638,9.497,1.054
			c2.041,0.222,3.6,0.978,4.657,2.319s1.515,3.16,1.377,5.361c-0.102,1.625-0.152,2.431-0.254,4.025
			c-0.138,2.159-0.8,3.667-1.971,4.522c-1.171,0.857-2.742,1-4.719,0.484c-1.915-0.5-2.869-0.746-4.771-1.247
			c-0.302-0.079-0.46,0.015-0.473,0.285c-0.133,2.802-0.2,4.191-0.333,6.924C71.058,138.164,70.787,138.336,70.268,138.181z
			 M72.048,126.283c1.613,0.374,2.423,0.561,4.046,0.933c0.816,0.188,1.403,0.141,1.755-0.14s0.554-0.832,0.601-1.658
			c0.076-1.342,0.114-2.02,0.19-3.378c0.048-0.862-0.086-1.507-0.403-1.925c-0.318-0.418-0.893-0.69-1.722-0.819
			c-1.648-0.257-2.47-0.385-4.106-0.644c-0.283-0.045-0.431,0.072-0.444,0.351c-0.126,2.723-0.189,4.08-0.315,6.77
			C71.637,126.047,71.769,126.219,72.048,126.283z"/>
		<path d="M110.851,150.06c-5.021-1.438-7.528-2.16-12.519-3.607c-0.535-0.155-0.772-0.491-0.718-1.023
			c0.933-9.137,1.397-15.024,2.33-27.034c0.054-0.699,0.361-1.021,0.923-0.963c5.246,0.541,7.879,0.809,13.128,1.356
			c0.535,0.056,0.768,0.479,0.698,1.265c-0.134,1.526-0.202,2.283-0.336,3.779c-0.069,0.771-0.369,1.112-0.9,1.033
			c-3.33-0.498-4.996-0.749-8.325-1.245c-0.32-0.048-0.493,0.117-0.524,0.489c-0.222,2.639-0.333,3.935-0.555,6.454
			c-0.031,0.356,0.109,0.566,0.426,0.632c2.693,0.553,4.041,0.828,6.737,1.382c0.552,0.113,0.794,0.526,0.726,1.229
			c-0.132,1.367-0.197,2.04-0.329,3.356c-0.068,0.678-0.375,0.946-0.922,0.815c-2.675-0.639-4.013-0.959-6.684-1.599
			c-0.314-0.075-0.483,0.056-0.515,0.388c-0.237,2.527-0.356,3.746-0.593,6.059c-0.031,0.305,0.106,0.499,0.416,0.584
			c3.225,0.889,4.841,1.33,8.075,2.216c0.516,0.142,0.737,0.513,0.668,1.097c-0.134,1.136-0.202,1.687-0.336,2.747
			C111.652,150.016,111.362,150.206,110.851,150.06z"/>
		<path d="M129.994,155.5c-1.477-0.417-2.215-0.625-3.692-1.043c-0.461-0.131-0.574-0.439-0.34-0.954
			c4.13-10.081,6.882-20.502,9.748-30.991c0.268-0.883,0.705-1.3,1.31-1.23c2.096,0.239,3.141,0.364,5.22,0.609
			c0.649,0.076,0.992,0.599,1.034,1.563c0.656,11.847,1.299,23.698,2.234,35.526c0.061,0.611-0.136,0.837-0.595,0.709
			c-1.469-0.411-2.203-0.617-3.675-1.029c-0.28-0.078-0.465-0.19-0.547-0.336c-0.082-0.145-0.123-0.385-0.123-0.722
			c-0.148-1.9-0.223-2.939-0.374-5.142c-3-0.809-4.505-1.212-7.519-2.023c-0.701,1.925-1.051,2.821-1.748,4.463
			c-0.1,0.306-0.218,0.498-0.349,0.581C130.446,155.565,130.25,155.572,129.994,155.5z M138.82,129.471
			c-1.846,7.174-2.766,10.499-4.592,16.199c2.295,0.574,3.442,0.861,5.727,1.436c-0.38-6.397-0.576-10.06-0.979-17.607
			C138.913,129.487,138.883,129.48,138.82,129.471z"/>
		<path d="M164.159,165.047c-1.279-0.354-1.921-0.532-3.204-0.889c-0.529-0.146-0.748-0.484-0.659-1.057
			c1.783-12.202,2.752-24.505,3.817-36.784c0.089-1.062,0.395-1.563,0.912-1.489c1.257,0.18,1.884,0.271,3.128,0.454
			c0.513,0.075,0.721,0.664,0.635,1.751c-0.704,8.854-1.056,13.099-1.76,20.468c0.029,0.007,0.046,0.012,0.075,0.019
			c0.297-0.985,0.804-2.253,1.523-3.858c2.782-5.597,4.157-8.76,6.837-15.546c0.389-1.07,0.892-1.565,1.503-1.466
			c1.387,0.227,2.072,0.341,3.438,0.573c0.255,0.043,0.402,0.249,0.437,0.617c0.034,0.367-0.06,0.811-0.279,1.323
			c-3.208,8.148-4.874,11.897-8.267,18.277c2.313,9.662,3.48,14.159,5.909,20.465c0.131,0.376,0.129,0.628-0.005,0.767
			c-0.134,0.138-0.372,0.156-0.717,0.062c-1.08-0.299-1.62-0.449-2.705-0.749c-0.866-0.239-1.413-0.662-1.63-1.314
			c-1.718-4.62-2.555-7.608-4.223-14.133c-1.11,1.552-1.671,2.285-2.793,3.659c-0.423,3.759-0.632,5.437-1.055,8.23
			C164.99,164.999,164.687,165.193,164.159,165.047z"/>
		<path d="M191.915,164.946c0.028-0.439,0.042-0.664,0.07-1.119c0.05-0.797,0.321-1.144,0.809-1.003
			c1.184,0.341,1.772,0.512,2.944,0.854c0.482,0.141,0.7,0.632,0.662,1.432c-0.009,0.183-0.011,0.272-0.02,0.452
			c-0.069,1.429,0.057,2.367,0.38,2.943c0.323,0.577,0.955,0.989,1.882,1.259c0.653,0.189,0.978,0.283,1.627,0.473
			c0.899,0.263,1.534,0.203,1.902-0.201s0.568-1.309,0.605-2.868c0.007-0.273,0.009-0.412,0.016-0.691
			c0.026-1.129-0.215-2.126-0.723-2.932c-0.508-0.804-1.146-1.396-1.924-1.755c-0.779-0.36-1.618-0.858-2.515-1.492
			c-0.898-0.635-1.733-1.363-2.5-2.19s-1.375-2.194-1.816-4.199c-0.442-2.005-0.588-4.532-0.441-7.733
			c0.05-1.084,0.073-1.634,0.123-2.747c0.185-4.136,0.816-7.441,1.857-9.699c1.04-2.256,2.374-3.266,3.994-2.9
			c1.246,0.281,1.86,0.425,3.076,0.715c1.601,0.382,2.792,2.001,3.646,4.8c0.854,2.8,1.281,6.52,1.263,10.835
			c-0.003,0.631-0.005,0.943-0.008,1.564c-0.005,1.145-0.225,1.635-0.659,1.506c-1.055-0.313-1.587-0.469-2.66-0.778
			c-0.442-0.128-0.652-0.741-0.633-1.873c0.004-0.194,0.006-0.291,0.01-0.486c0.037-2.112-0.095-3.647-0.392-4.521
			c-0.297-0.872-0.86-1.424-1.697-1.643c-0.49-0.129-0.735-0.192-1.23-0.319c-0.867-0.224-1.475,0.066-1.813,0.845
			s-0.551,2.407-0.633,4.785c-0.021,0.603-0.032,0.902-0.053,1.495c-0.086,2.446,0.776,4.025,2.553,4.877
			c1.836,0.88,3.474,2.213,4.84,3.945c0.741,0.94,1.352,2.447,1.844,4.362c0.492,1.914,0.739,4.17,0.729,6.526
			c-0.004,0.801-0.006,1.189-0.01,1.94c-0.014,2.872-0.517,4.514-1.548,5.398c-1.031,0.886-2.478,0.966-4.314,0.46
			c-1.54-0.425-2.314-0.64-3.868-1.067c-1.854-0.511-3.273-1.402-4.226-2.904C192.11,169.787,191.731,167.806,191.915,164.946z"/>
	</g>
	<g>
		<path d="M34.592,105.484c0-9.074,0-11.602,0-26.712c0-0.879,0.45-1.476,1.365-1.751c6.28-1.887,9.652-2.933,16.67-5.143
			c3.85-1.212,6.911-1.322,9.032-0.292c2.12,1.029,3.13,3.155,3.018,6.379c-0.036,1.017-0.052,1.526-0.087,2.544
			c-0.123,3.518-6.06,8.123-6.06,8.123c0.007,0.027,3.495,0.112,4.641,0.964c1.146,0.853,1.682,2.34,1.608,4.402
			c-0.054,1.516-0.081,2.275-0.135,3.796c-0.116,3.295-1.254,5.911-3.356,7.6c-2.103,1.688-4.975,2.334-8.581,2.13
			c-6.933-0.393-10.31-0.611-16.766-1.134C35.039,106.317,34.592,106.013,34.592,105.484z M43.767,89.246
			c2.792-0.674,4.218-1.022,7.116-1.736c1.515-0.374,2.645-0.9,3.377-1.592s1.116-1.636,1.141-2.829
			c0.019-0.9,0.028-1.352,0.047-2.263c0.025-1.208-0.313-1.981-1.008-2.296c-0.696-0.315-1.823-0.229-3.357,0.244
			c-2.964,0.916-4.421,1.362-7.266,2.228c-0.507,0.154-0.758,0.44-0.76,0.853c-0.016,2.991-0.023,4.374-0.039,7.027
			C43.016,89.247,43.264,89.367,43.767,89.246z M43.674,102.137c3.019-0.08,4.556-0.13,7.675-0.241
			c1.531-0.055,2.65-0.336,3.343-0.865c0.692-0.529,1.056-1.383,1.082-2.536c0.03-1.294,0.045-1.939,0.075-3.236
			c0.026-1.154-0.314-1.923-1.02-2.279c-0.705-0.356-1.869-0.38-3.468-0.094c-3.106,0.555-4.637,0.825-7.631,1.339
			c-0.5,0.086-0.747,0.297-0.749,0.635c-0.018,2.788-0.025,4.117-0.043,6.806C42.937,101.992,43.18,102.149,43.674,102.137z"/>
		<path d="M85.604,62.553c-1.091,14.868-1.933,29.752-2.805,44.635c-0.065,1.119-0.619,1.657-1.656,1.619
			c-2.519-0.094-3.773-0.141-6.267-0.239c-1.027-0.041-1.514-0.564-1.467-1.57c0.648-13.716,1.29-27.432,2.033-41.143
			c0.047-0.867,0.626-1.472,1.742-1.833c2.709-0.876,4.074-1.319,6.819-2.208C85.134,61.447,85.669,61.684,85.604,62.553z"/>
		<path d="M112.434,109.897c-3.195-0.113-4.795-0.171-7.992-0.28c-3.972-0.136-6.931-1.584-8.917-4.123s-2.837-6.026-2.522-10.619
			c0.76-11.057,1.14-16.589,1.899-25.93c0.315-3.878,1.709-6.938,4.227-9.501s5.961-4.459,10.281-5.85
			c3.477-1.119,5.216-1.678,8.673-2.782c4.24-1.354,7.372-1.606,9.387-0.444c2.014,1.162,2.731,3.714,2.199,8.229
			c-0.123,1.042-0.184,1.578-0.307,2.67c-0.15,1.335-0.773,2.182-1.871,2.48c-2.666,0.725-4.008,1.092-6.698,1.831
			c-1.108,0.304-1.595-0.205-1.461-1.475c0.088-0.832,0.131-1.241,0.219-2.046c0.195-1.788-0.013-2.879-0.626-3.363
			c-0.614-0.485-1.781-0.445-3.501,0.092c-2.095,0.654-3.145,0.982-5.246,1.642c-1.671,0.524-2.906,1.229-3.7,2.122
			s-1.269,2.132-1.425,3.798c-0.895,9.53-1.342,15.332-2.237,26.942c-0.157,2.031,0.079,3.455,0.701,4.277
			c0.623,0.823,1.723,1.2,3.305,1.107c1.99-0.117,2.985-0.177,4.973-0.292c1.631-0.094,2.817-0.633,3.562-1.639
			c0.743-1.005,1.214-2.667,1.409-4.942c0.23-2.687,0.345-4.021,0.575-6.646c0.067-0.763-0.184-1.096-0.752-1.004
			c-1.863,0.303-2.795,0.455-4.663,0.761c-1.089,0.179-1.577-0.421-1.461-1.782c0.224-2.644,0.336-3.946,0.561-6.48
			c0.116-1.305,0.726-2.072,1.83-2.334c5.522-1.313,8.279-1.965,13.727-3.232c1.193-0.277,1.709,0.363,1.553,1.964
			c-0.684,6.979-1.026,10.776-1.71,18.44c-0.532,5.966-2.03,10.74-4.47,13.943C119.513,108.636,116.353,110.036,112.434,109.897z"/>
		<path d="M154.539,111.841c-2.724-0.173-4.099-0.254-6.87-0.409c-0.866-0.049-1.073-0.993-0.617-2.857
			c5.387-23.56,9.164-48.688,18.511-71.104c0.492-0.956,1.272-1.516,2.325-1.81c3.647-1.018,5.414-1.498,8.807-2.387
			c1.063-0.278,1.607-0.093,1.659,0.696c2.059,25.514,2.439,51.21,3.464,76.779c0.115,2.292-0.206,3.389-0.971,3.305
			c-2.449-0.271-3.695-0.397-6.225-0.641c-0.483-0.047-0.798-0.312-0.94-0.791s-0.214-1.345-0.213-2.594
			c-0.251-6.892-0.372-10.379-0.612-17.144c-5.146,0.083-7.815,0.165-13.282,0.38c-1.314,6.33-1.975,9.521-3.296,15.708
			c-0.192,1.127-0.41,1.894-0.659,2.302S155.011,111.871,154.539,111.841z M170.838,43.299c-3.381,11.648-5.914,23.541-8.361,35.414
			c4.112-0.485,6.124-0.708,10.025-1.101c-0.408-11.465-0.798-22.929-1.396-34.386C170.999,43.254,170.944,43.271,170.838,43.299z"
			/>
		<path d="M206.979,118.134c-6.758-1.485-10.516-2.1-18.525-3.159c-0.853-0.112-1.224-1.322-1.103-3.65
			c1.386-26.837,1.764-54.064,5.195-80.747c0.121-0.802,0.548-1.19,1.254-1.33c1.714-0.341,2.536-0.493,4.098-0.758
			c0.644-0.109,0.906,0.131,0.817,0.904c-2.101,21.694-2.364,43.626-3.18,65.393c-0.047,1.27,0.154,1.918,0.597,1.952
			c4.674,0.354,6.873,0.585,10.917,1.182c0.64,0.095,0.951,1.488,0.951,4.179c0,4.993,0,7.504,0,12.454
			C208,117.102,207.664,118.284,206.979,118.134z"/>
	</g>
</g>
</svg>
